<svg width="98" height="85" viewBox="0 0 98 85" fill="none" xmlns="http://www.w3.org/2000/svg">
<path fill-rule="evenodd" clip-rule="evenodd" d="M49 84.6252C48.4974 84.714 47.9761 84.7435 47.4479 84.7076C31.1272 83.5961 15.6793 75.5044 6.87783 61.8211C-1.92378 48.1377 -2.00693 32.0835 5.08137 18.8411C6.11045 16.9185 8.34128 15.7625 10.7108 15.9238C16.7928 16.3381 22.7535 17.7216 28.2943 20.0026C32.4752 12.6855 38.6608 6.44335 46.2003 1.86038C48.1679 0.664378 50.7413 0.664377 52.7089 1.86038C60.1461 6.38112 66.2658 12.5163 70.4435 19.7052C75.7741 17.6011 81.4763 16.3197 87.2892 15.9238C89.6587 15.7625 91.8895 16.9185 92.9186 18.8411C100.007 32.0835 99.9238 48.1377 91.1222 61.8211C82.3207 75.5044 66.8728 83.5961 50.552 84.7076C50.0239 84.7435 49.5026 84.714 49 84.6252ZM60.9578 76.3303C70.7406 73.344 79.3936 67.2835 84.9609 58.6282C92.3714 47.1074 92.6127 33.6355 86.9001 22.3633C82.2092 22.7718 77.6181 23.8486 73.3105 25.5488C75.4119 30.7366 76.5581 36.336 76.5581 42.1758C76.5581 55.4848 70.6047 67.5459 60.9578 76.3303ZM64.1448 22.6746C60.6546 16.6603 55.5983 11.4922 49.4546 7.60374C43.1794 11.5754 38.0385 16.8823 34.5423 23.0621C40.1069 26.2562 45.0503 30.4578 49 35.5774C53.1115 30.248 58.2999 25.9134 64.1448 22.6746ZM53.0309 41.771C56.6056 36.2977 61.4206 31.875 66.9731 28.6261C68.5755 32.8801 69.4436 37.437 69.4436 42.1758C69.4436 53.1158 64.8168 63.087 57.2099 70.5979C59.2681 61.1101 58.0232 51.0049 53.0309 41.771ZM44.9691 41.771C41.5551 36.5438 37.0099 32.2748 31.7714 29.0715C30.2743 33.1976 29.4656 37.602 29.4656 42.1758C29.4656 52.5547 33.63 62.0617 40.5528 69.4232C38.8408 60.2796 40.1823 50.6248 44.9691 41.771ZM49 73.719C51.6707 66.0956 51.7806 57.7794 49 49.8955C46.2194 57.7794 46.3293 66.0956 49 73.719ZM13.0391 58.6282C18.8593 67.6766 28.0519 73.8892 38.3822 76.7182C28.4821 67.9026 22.3511 55.6818 22.3511 42.1758C22.3511 36.4548 23.4512 30.9644 25.4718 25.8657C20.9397 23.982 16.0759 22.7966 11.0998 22.3633C5.38732 33.6355 5.62861 47.1074 13.0391 58.6282Z" fill="#FBB503"/>
</svg>
